<svg width="28" height="28" viewBox="0 0 28 28" fill="none" xmlns="http://www.w3.org/2000/svg">
<path d="M28 14C28 15.4971 27.8796 16.9651 27.6497 18.3965C26.8886 23.1351 23.1351 26.8887 18.3965 27.6497C16.965 27.8796 15.497 28 14 28C12.503 28 11.035 27.8796 9.60355 27.6497C4.86494 26.8887 1.11135 23.1351 0.350273 18.3965C0.120366 16.9652 0 15.4971 0 14C0 12.5029 0.120366 11.0349 0.350273 9.6035C1.11135 4.86489 4.86494 1.11135 9.60355 0.350271C11.035 0.120363 12.503 0 14 0C15.497 0 16.965 0.120363 18.3965 0.350271C23.1351 1.11135 26.8886 4.86489 27.6497 9.6035C27.8796 11.0349 28 12.5029 28 14Z" fill="#0B5CFF"/>
<path d="M28 14C28 15.4971 27.8796 16.9651 27.6497 18.3965C26.8886 23.1351 23.1351 26.8887 18.3965 27.6497C16.965 27.8796 15.497 28 14 28C12.503 28 11.035 27.8796 9.60355 27.6497C4.86494 26.8887 1.11135 23.1351 0.350273 18.3965C0.120366 16.9652 0 15.4971 0 14C0 12.5029 0.120366 11.0349 0.350273 9.6035C1.11135 4.86489 4.86494 1.11135 9.60355 0.350271C11.035 0.120363 12.503 0 14 0C15.497 0 16.965 0.120363 18.3965 0.350271C23.1351 1.11135 26.8886 4.86489 27.6497 9.6035C27.8796 11.0349 28 12.5029 28 14Z" fill="url(#paint0_radial_412_7367)"/>
<path d="M27.9999 14C27.9999 15.4971 27.8795 16.9651 27.6496 18.3965C26.8885 23.1351 23.135 26.8887 18.3964 27.6497C16.9649 27.8796 15.497 28 13.9999 28C12.5029 28 11.0349 27.8796 9.6035 27.6497C4.86484 26.8887 1.1113 23.1351 0.350223 18.3965C0.120316 16.9651 0 15.4971 0 14C0 12.503 0.120316 11.0349 0.350223 9.60347C1.11135 4.86491 4.86489 1.11127 9.6035 0.350238C11.035 0.120331 12.5029 1.52588e-05 13.9999 1.52588e-05C15.497 1.52588e-05 16.965 0.120331 18.3964 0.350238C23.135 1.11127 26.8885 4.86491 27.6496 9.60347C27.8795 11.0349 27.9999 12.5029 27.9999 14Z" fill="url(#paint1_radial_412_7367)"/>
<g clip-path="url(#clip0_412_7367)">
<path d="M22.3524 8.24082C21.8177 8.05627 21.2586 7.81021 20.8588 7.39236L20.8576 7.3912C20.4647 6.98032 20.2044 6.46382 20.0021 5.89625C19.9324 5.70125 19.6557 5.70125 19.5871 5.89625C19.4012 6.429 19.1396 6.98148 18.7305 7.3912C18.3213 7.80092 17.7471 8.05047 17.2159 8.2385C17.0195 8.30814 17.023 8.58555 17.2194 8.65403C17.7611 8.84206 18.312 9.09857 18.7316 9.51641C19.1513 9.93426 19.3675 10.4798 19.5616 11.0253C19.6325 11.2238 19.9149 11.218 19.9789 11.0172C20.1579 10.4531 20.4043 9.90292 20.8286 9.48623C21.2482 9.07419 21.8131 8.83277 22.3501 8.65635C22.5489 8.59135 22.55 8.3093 22.3524 8.24082Z" fill="white"/>
<path d="M20.9551 13.7301C19.4917 13.2252 17.962 12.5521 16.867 11.4076V11.4065C15.793 10.2829 15.0805 8.87037 14.526 7.31622C14.3354 6.7823 13.5787 6.78114 13.3904 7.31622C12.879 8.77287 12.1676 10.2852 11.0447 11.4065C9.92189 12.5277 8.35153 13.2113 6.89857 13.7255C6.36156 13.9159 6.3697 14.6749 6.90787 14.8618C8.38989 15.376 9.90562 16.084 11.0447 17.2215C12.192 18.3671 12.7836 19.8585 13.316 21.3523C13.5101 21.8967 14.2843 21.8805 14.4586 21.3303C14.948 19.7854 15.6373 18.2649 16.7845 17.1391C17.9318 16.0132 19.4777 15.3528 20.947 14.8688C21.4921 14.6889 21.4968 13.917 20.9551 13.7301Z" fill="white"/>
</g>
<defs>
<radialGradient id="paint0_radial_412_7367" cx="0" cy="0" r="1" gradientUnits="userSpaceOnUse" gradientTransform="translate(14 12.3731) scale(18.8757 15.7759)">
<stop offset="0.82" stop-color="#0B5CFF" stop-opacity="0"/>
<stop offset="0.98" stop-color="#003CB3"/>
</radialGradient>
<radialGradient id="paint1_radial_412_7367" cx="0" cy="0" r="1" gradientUnits="userSpaceOnUse" gradientTransform="translate(13.9999 15.6211) scale(18.8689 15.7703)">
<stop offset="0.8" stop-color="#0B5CFF" stop-opacity="0"/>
<stop offset="1" stop-color="#71A5F1"/>
</radialGradient>
<clipPath id="clip0_412_7367">
<rect width="18" height="18" fill="white" transform="translate(5 5)"/>
</clipPath>
</defs>
</svg>
