<svg width="262" height="30" viewBox="0 0 262 30" fill="none" xmlns="http://www.w3.org/2000/svg">
<path d="M131.028 0.5H135.257L129.883 23.6108H125.113L121.233 5.88699L117.417 23.6108H112.583L107.176 0.5H111.565L115.254 18.3513L118.912 0.5H123.587L127.529 18.3829L131.028 0.5ZM143.654 24.0249C139.488 24.0249 135.227 21.2513 135.227 15.0677C135.227 8.88291 139.488 6.0777 143.654 6.0777C147.821 6.0777 152.081 8.88291 152.081 15.0677C152.081 21.2513 147.821 24.0249 143.654 24.0249ZM148.171 15.0677C148.171 11.1149 146.04 9.17066 143.654 9.17066C141.269 9.17066 139.138 11.1149 139.138 15.0677C139.138 19.0205 141.269 20.9331 143.654 20.9331C146.04 20.9331 148.171 19.0205 148.171 15.0677ZM162.138 10.2223C159.752 10.2223 158.386 11.1781 158.386 14.6208V23.6108H154.601V6.46022H158.321V9.52046C159.243 7.60782 160.897 6.46022 162.965 6.42863C163.251 6.42863 163.664 6.46022 163.95 6.49295V10.3182C163.314 10.2539 162.711 10.2223 162.138 10.2223ZM170.071 13.3457L176.398 6.46022H180.946L174.396 13.506L181.678 23.6108H177.257L171.883 16.1837L170.071 18.1279V23.6108H166.286V0.5H170.071L170.071 13.3457ZM187.128 8.75539C188.146 7.06617 189.926 6.07769 192.216 6.07769C196.383 6.07769 199.563 9.55317 199.563 15.0361C199.563 20.5506 196.383 24.0249 192.216 24.0249C189.926 24.0249 188.146 23.0365 187.128 21.3472V29.1897H183.344V6.46022H187.128V8.75539ZM195.619 15.0361C195.619 11.4331 194.03 9.17064 191.39 9.17064C188.909 9.17064 186.969 11.0833 186.969 15.0361C186.969 18.9889 188.909 20.9331 191.39 20.9331C194.03 20.9331 195.619 18.6695 195.619 15.0361ZM202.438 23.6108V0.5H206.223V23.6108H202.438ZM220.53 12.9V12.5807C220.53 9.64795 218.844 8.75539 216.968 8.75539C215.06 8.75539 213.629 9.77546 213.533 11.8483H209.813C210.067 8.34126 212.961 5.95018 217.095 5.95018C221.197 5.95018 224.41 7.83123 224.314 13.3141C224.314 14.1751 224.25 16.1837 224.25 17.7454C224.25 19.9131 224.442 22.1766 224.759 23.6108H221.293C221.166 22.8774 221.038 22.4632 220.975 21.2841C219.894 23.1324 217.858 24.0249 215.346 24.0249C211.625 24.0249 209.018 22.0164 209.018 18.893C209.018 14.6208 214.265 13.5376 220.53 12.9ZM213.024 18.797C213.024 20.2956 214.265 21.1881 216.173 21.1881C218.972 21.1881 220.625 19.7539 220.625 16.8528V15.5461C215.22 16.0562 213.024 16.8212 213.024 18.797ZM239.074 12.3256C238.755 10.5089 237.166 9.23383 235.098 9.23383C232.745 9.23383 230.614 10.9874 230.614 15.0361C230.614 19.1164 232.776 20.8688 235.003 20.8688C236.847 20.8688 238.724 20.0405 239.201 17.7454H242.89C242.127 21.7614 238.597 24.0249 234.939 24.0249C229.978 24.0249 226.702 20.1681 226.702 15.0677C226.702 9.96729 230.009 6.07769 235.098 6.07769C238.819 6.07769 242.127 8.50037 242.763 12.3257L239.074 12.3256ZM252.992 20.8688C254.964 20.8688 256.522 20.0721 257.189 18.4788H260.911C260.116 21.2197 257.572 24.0249 253.151 24.0249C247.65 24.0249 244.501 19.8171 244.501 14.9086C244.501 9.74385 248.03 6.07766 252.897 6.07766C258.144 6.07766 261.42 10.3498 261.101 16.1193H248.349C248.603 19.3071 250.829 20.8688 252.992 20.8688ZM257.253 13.3457C257.158 10.668 255.122 9.04313 252.897 9.04313C251.116 9.04313 248.667 10.0948 248.349 13.3457H257.253Z" fill="white"/>
<path d="M20.2415 23.611H2.98443C1.77365 23.611 0.69187 22.8865 0.228532 21.7652C-0.234806 20.6439 0.0190531 19.3648 0.875227 18.5068L12.8285 6.52517H4.26137C1.90789 6.52518 9.67714e-06 4.61278 9.67714e-06 2.25371H15.9148C17.1255 2.25371 18.2072 2.97806 18.6706 4.09932C19.134 5.22058 18.8804 6.49952 18.0243 7.35798L6.07092 19.3396H15.9802C18.3337 19.3396 20.2415 21.252 20.2415 23.611ZM96.52 10.2627C96.52 5.66983 92.7923 1.93335 88.2104 1.93335C85.7595 1.93335 83.5536 3.0031 82.0314 4.70052C80.5091 3.00309 78.3033 1.93335 75.8524 1.93335C71.2704 1.93335 67.5427 5.66984 67.5427 10.2627V23.611C69.8962 23.611 71.8041 21.6986 71.8041 19.3396V10.2627C71.8041 8.02518 73.6202 6.20481 75.8524 6.20481C78.0846 6.20481 79.9007 8.02518 79.9007 10.2627V19.3396C79.9007 21.6986 81.8086 23.611 84.1621 23.611V10.2627C84.1621 8.02518 85.9781 6.20481 88.2104 6.20481C90.4426 6.20481 92.2587 8.02518 92.2587 10.2627V19.3396C92.2587 21.6986 94.1665 23.611 96.52 23.611V10.2627ZM65.412 12.9324C65.412 19.007 60.4992 23.9314 54.439 23.9314C48.3788 23.9314 43.466 19.007 43.466 12.9324C43.466 6.85777 48.3788 1.93335 54.439 1.93335C60.4992 1.93335 65.412 6.85777 65.412 12.9324ZM61.1507 12.9324C61.1507 9.21684 58.1458 6.20481 54.439 6.20481C50.7323 6.20481 47.7274 9.21684 47.7274 12.9324C47.7274 16.6479 50.7323 19.6599 54.439 19.6599C58.1458 19.6599 61.1507 16.6479 61.1507 12.9324ZM41.7614 12.9324C41.7614 19.007 36.8487 23.9314 30.7884 23.9314C24.7282 23.9314 19.8154 19.007 19.8154 12.9324C19.8154 6.85777 24.7282 1.93335 30.7884 1.93335C36.8486 1.93335 41.7614 6.85777 41.7614 12.9324ZM37.5001 12.9324C37.5001 9.21684 34.4952 6.20481 30.7884 6.20481C27.0817 6.20481 24.0768 9.21684 24.0768 12.9324C24.0768 16.6479 27.0817 19.6599 30.7884 19.6599C34.4952 19.6599 37.5001 16.6479 37.5001 12.9324Z" fill="white"/>
</svg>
